<svg
    width="40"
    height="40"
    viewBox="0 0 40 40"
    fill="none"
    xmlns="http://www.w3.org/2000/svg"
  >
    <path d="M24.5253 8.58124H24.5298V8.59311H24.5253V8.58124Z" fill="black" />
    <path d="M29.3081 7.5144H32.5103V10.7166H29.3081V7.5144Z" fill="black" />
    <path d="M33.9594 10.6384H37.1615V13.8406H33.9594V10.6384Z" fill="black" />
    <path d="M31.4856 28.0084H34.6878V31.2106H31.4856V28.0084Z" fill="black" />
    <path d="M29.22 21.7844H32.4222V24.9866H29.22V21.7844Z" fill="black" />
    <path d="M26.1469 26.0031H29.349V29.2053H26.1469V26.0031Z" fill="black" />
    <path d="M25.3006 5.20874H28.5028V8.41093H25.3006V5.20874Z" fill="black" />
    <path d="M29.5062 14.4537H32.7084V17.6559H29.5062V14.4537Z" fill="black" />
    <path d="M25.6722 17.5225H28.8744V20.7247H25.6722V17.5225Z" fill="black" />
    <path
      d="M25.4597 24.6097V21.4056L22.2544 21.4081V24.6097H25.4597Z"
      fill="black"
    />
    <path
      d="M29.3247 36.8181C28.7535 34.9224 28.3512 32.9798 28.1225 31.0131H24.5184V27.8125H21.3168V24.6103H18.1147V21.4081H21.3168V18.1772H24.5218V14.9897H27.7228V11.7869L24.5253 11.7834V8.59375L21.3147 8.59187V5.38906L24.5206 5.38125V3.11156C22.9899 2.61631 21.3994 2.32936 19.7922 2.25843C11.9394 1.85218 5.21404 6.89593 5.4306 13.8522C5.45904 14.7703 5.61966 16.1225 5.61591 17.0059C5.60872 20.1441 2.89341 21.4331 2.84122 22.4319C2.75529 24.0719 4.68185 23.5597 5.36122 25.8797C6.22372 28.825 4.98623 32.1837 9.00123 31.9762C10.6028 31.9119 13.2056 31.2903 14.3209 32.3275C15.0322 32.9887 15.605 35.875 15.8284 37.1522C15.8586 37.3238 15.9484 37.4794 16.082 37.5913C16.2156 37.7032 16.3844 37.7644 16.5587 37.7641H28.6115C28.7265 37.7644 28.8399 37.7379 28.9429 37.6867C29.0458 37.6356 29.1354 37.5612 29.2046 37.4694C29.2738 37.3776 29.3207 37.271 29.3415 37.1579C29.3624 37.0449 29.3566 36.9285 29.3247 36.8181ZM15.1215 11.7969H11.9193V8.59375H15.1215V11.7969ZM18.3215 9.81812H21.5237V13.0203H18.3215V9.81812ZM15.9256 17.3437V14.1412H19.1278V17.3437H15.9256ZM19.9615 31.7709H16.7593V28.5681H19.9615V31.7709Z"
      fill="black"
    />
  </svg>